<?xml version="1.0" encoding="utf-8"?>
<svg xmlns="http://www.w3.org/2000/svg" width="1em" height="1em" viewBox="0 0 512 512">
  <path d="M 86.012 244.55 L 87 244.55 L 87 166.01 L 72.941 168.822 L 69.41 151.174 C 95.976 145.858 122.543 140.547 149.11 135.232 L 156.982 135.232 L 156.985 117.234 L 153 117.234 L 153 55.232 L 156.995 55.232 L 157 21.234 L 175 21.234 L 175.008 55.232 L 337.007 55.232 L 336.999 21.234 L 354.999 21.234 L 354.939 55.232 L 358.999 55.232 L 358.999 117.234 L 354.829 117.234 L 354.797 135.232 L 362.89 135.232 C 389.457 140.545 416.023 145.859 442.588 151.174 L 439.058 168.822 L 424.999 166.01 L 424.999 244.55 L 426.776 244.55 L 426.776 263.374 L 418.632 263.374 L 300.472 346.086 C 337.841 373.489 375.209 400.894 412.577 428.299 L 401.935 442.813 L 383.192 429.068 L 391.2 449.891 L 428.532 476.021 L 418.209 490.766 C 364.141 452.914 310.069 415.067 255.999 377.216 L 93.788 490.766 L 83.466 476.021 L 120.798 449.891 L 128.806 429.068 L 110.063 442.813 L 99.421 428.299 C 136.786 400.891 174.159 373.492 211.526 346.086 L 93.366 263.374 L 86.011 263.374 Z M 407 162.41 L 355 152.01 L 355 197.234 L 354.689 197.234 L 354.65 219.469 L 388.093 244.55 L 407.001 244.55 Z M 156.969 219.755 L 156.98 152.014 L 105 162.41 L 105 244.55 L 123.908 244.55 Z M 337.025 135.232 L 337.021 117.234 L 175.023 117.234 L 175.047 215.232 L 337.043 215.232 L 337.039 197.234 L 337 197.234 L 337 135.232 Z M 226.854 334.847 L 240.781 324.632 L 157.247 263.374 L 124.752 263.374 Z M 256 313.472 L 324.318 263.374 L 187.684 263.374 Z M 271.219 324.633 L 285.146 334.848 L 387.25 263.374 L 354.755 263.374 Z M 242.426 345.748 L 256 355.25 L 269.574 345.748 L 256 335.793 Z M 155.664 409.373 L 147.184 431.42 L 240.309 366.232 L 227.1 356.986 Z M 271.691 366.234 L 364.816 431.42 L 356.336 409.373 L 284.9 356.986 Z" style=""/>
</svg>