<?xml version="1.0" encoding="utf-8"?>
<svg version="1.0" xmlns="http://www.w3.org/2000/svg" width="1280.000000pt" height="988.000000pt" viewBox="0 0 1280.000000 988.000000" preserveAspectRatio="xMidYMid meet">
  <g transform="matrix(-0.1, 0, 0, -0.1, 1296.780538, 987.994706)" fill="#000000" stroke="none" style="">
    <path d="M6608 9655 c-117 -32 -177 -97 -164 -177 15 -90 89 -230 278 -518 153 -234 170 -265 217 -404 43 -125 47 -154 28 -200 -12 -27 -13 -24 -30 64 -34 183 -130 353 -291 514 -229 230 -495 370 -778 410 -59 9 -97 -7 -234 -96 -114 -75 -181 -138 -236 -222 -61 -95 -80 -168 -85 -336 -6 -177 8 -268 73 -477 69 -220 84 -280 89 -368 l6 -80 -29 75 c-16 41 -67 156 -114 255 -96 203 -119 260 -147 372 -29 117 -34 184 -20 268 6 42 9 78 6 81 -12 12 -110 -52 -152 -98 -24 -26 -80 -108 -125 -180 -124 -199 -176 -271 -235 -327 -60 -57 -85 -66 -158 -57 -145 18 -181 18 -217 -1 -76 -40 -95 -130 -60 -299 14 -70 39 -149 70 -220 47 -108 95 -252 87 -260 -8 -8 -77 152 -115 266 -70 207 -123 289 -238 365 -168 112 -447 171 -692 146 -243 -24 -419 -77 -752 -223 -356 -157 -440 -208 -586 -352 -191 -191 -428 -573 -583 -943 -66 -155 -139 -376 -152 -453 -23 -144 42 -229 269 -355 200 -110 190 -103 263 -193 6 -7 9 -16 6 -19 -7 -6 -68 37 -172 122 -44 36 -106 79 -137 94 -64 32 -182 57 -221 47 -104 -26 -211 -270 -262 -600 -14 -91 -15 -110 -4 -121 8 -7 140 -88 294 -180 296 -177 372 -231 455 -321 58 -64 115 -144 102 -144 -29 0 -177 104 -317 224 -187 160 -395 222 -541 161 -27 -11 -35 -27 -87 -166 -109 -293 -140 -430 -141 -624 -1 -221 35 -291 188 -365 45 -22 88 -40 95 -40 24 0 91 -41 91 -55 0 -23 -83 -19 -194 10 -126 33 -166 32 -206 -1 -38 -33 -100 -154 -141 -277 -28 -83 -31 -100 -27 -194 3 -94 6 -105 33 -145 19 -26 67 -67 128 -108 l98 -65 -67 -6 c-39 -3 -92 -1 -126 6 -101 21 -131 2 -189 -120 -52 -111 -69 -204 -69 -379 0 -160 7 -188 51 -207 38 -15 85 -7 222 40 246 84 426 162 512 221 114 78 177 191 153 273 -18 59 2 70 112 62 94 -7 190 5 284 36 89 29 693 332 751 376 91 70 116 134 76 199 -42 69 -154 127 -438 225 -100 35 -181 64 -179 66 2 2 86 -10 187 -26 608 -98 933 -121 1206 -86 160 21 222 38 332 92 69 33 111 61 157 107 74 71 82 103 39 154 -25 30 -204 124 -297 157 -26 9 -58 25 -70 34 -21 17 -17 17 82 0 137 -25 382 -39 500 -28 113 10 182 29 271 75 135 71 175 147 130 249 -39 87 -128 209 -218 296 -135 131 -199 170 -528 324 l-40 19 111 7 c192 12 427 74 476 126 52 55 39 105 -45 175 -259 216 -552 489 -657 613 -60 72 -171 228 -198 280 -16 31 -64 176 -60 180 2 3 53 -62 114 -143 278 -374 477 -600 627 -713 89 -67 248 -148 305 -156 39 -5 40 -5 97 71 91 121 218 213 380 276 44 17 100 40 125 52 l45 21 -85 12 c-131 18 -284 53 -379 87 -111 39 -332 151 -308 156 10 2 29 -3 41 -12 69 -44 348 -102 760 -156 346 -45 468 -67 593 -105 106 -33 238 -93 279 -128 53 -45 59 -38 60 66 2 148 64 300 180 443 25 30 49 65 54 78 9 25 -3 90 -22 114 -19 22 -1 24 33 3 43 -26 75 -26 140 -1 120 48 251 154 323 261 59 89 79 159 78 267 0 50 3 92 8 92 18 0 60 -162 67 -253 8 -120 15 -127 126 -127 245 0 488 -73 632 -189 28 -23 65 -48 82 -58 31 -16 34 -16 52 1 11 10 32 49 47 87 15 38 28 69 30 69 1 0 19 -69 39 -152 60 -253 79 -303 144 -369 45 -47 67 -61 115 -74 75 -22 145 -14 228 27 125 62 325 294 424 491 20 38 38 67 41 64 3 -3 11 -35 19 -72 25 -118 66 -179 149 -223 45 -24 61 -27 155 -27 92 0 111 3 150 24 62 33 145 122 210 226 98 155 229 352 243 363 10 9 12 -25 9 -184 -6 -256 -9 -249 132 -241 182 10 465 99 724 228 83 41 152 72 152 69 0 -4 -9 -33 -20 -65 -28 -81 -26 -120 6 -141 23 -15 34 -16 105 -5 181 28 329 79 613 213 431 202 762 430 986 679 46 52 95 106 108 121 24 26 24 28 8 53 -27 42 -134 114 -241 165 -134 63 -618 224 -651 216 -32 -8 -65 -76 -144 -296 -34 -96 -69 -188 -77 -204 -16 -30 -60 -76 -74 -76 -5 0 21 60 56 133 75 152 98 232 98 337 1 95 -27 163 -90 221 -44 40 -143 93 -206 110 -18 5 -65 18 -106 29 -95 26 -141 17 -192 -38 -47 -50 -63 -116 -50 -210 29 -205 26 -209 -39 -62 -52 119 -140 285 -195 370 -119 185 -284 320 -392 321 -72 1 -134 17 -170 45 -17 13 -43 24 -57 24 -64 0 -133 -113 -207 -340 -46 -140 -47 -143 -48 -93 -1 76 -26 190 -59 275 -109 282 -419 511 -866 640 -156 45 -166 41 -166 -56 0 -124 25 -220 220 -858 45 -148 69 -245 65 -255 -4 -10 -9 -13 -11 -8 -2 6 -33 108 -69 227 -79 264 -177 514 -295 753 -109 222 -173 321 -232 356 -45 28 -623 223 -839 283 -268 75 -456 109 -664 121 -60 3 -126 7 -145 10 -19 2 -56 -2 -82 -10z"/>
    <path d="M12435 7119 c-158 -36 -296 -106 -1070 -539 -450 -251 -546 -290 -810 -325 -846 -112 -1245 -199 -1499 -327 -185 -93 -189 -102 -88 -200 157 -152 344 -241 901 -429 518 -176 633 -221 792 -315 78 -45 174 -122 165 -132 -3 -2 -63 24 -133 58 -303 148 -804 347 -1248 495 -593 198 -989 284 -1177 257 -93 -13 -142 -37 -191 -91 -57 -63 -73 -105 -136 -348 -33 -125 -76 -275 -97 -331 l-37 -104 68 -131 c37 -73 77 -145 88 -160 10 -16 17 -30 14 -33 -4 -5 -15 5 -44 40 -17 20 -113 40 -156 32 -54 -10 -98 -45 -150 -121 -64 -93 -143 -254 -164 -335 -24 -96 -22 -219 6 -308 13 -40 20 -76 16 -80 -4 -4 -21 11 -38 33 -17 22 -55 64 -84 94 l-53 55 -55 -75 c-30 -41 -70 -104 -90 -141 -44 -83 -55 -87 -190 -64 -92 15 -355 23 -355 11 0 -10 74 -152 143 -275 99 -176 197 -334 451 -730 269 -419 274 -426 255 -415 -43 26 -119 100 -198 194 -236 278 -423 561 -683 1035 -59 108 -116 198 -131 210 -20 15 -51 21 -134 27 -123 9 -193 23 -377 73 -71 20 -148 36 -170 36 -23 1 -58 7 -78 14 l-37 13 -7 -63 c-12 -119 12 -308 66 -518 16 -65 30 -120 30 -124 -1 -4 -21 47 -46 113 -90 242 -204 444 -318 564 -149 157 -378 251 -610 251 -132 0 -388 -49 -443 -85 -15 -10 -32 -45 -52 -107 -63 -198 -80 -369 -61 -600 19 -231 14 -239 -44 -68 -62 183 -107 281 -148 315 l-32 27 -335 -5 c-429 -5 -476 -16 -521 -115 -12 -26 -24 -53 -28 -60 -4 -8 -99 -44 -212 -82 -652 -217 -1551 -692 -2018 -1066 -143 -114 -235 -241 -236 -324 -1 -81 50 -133 314 -318 593 -416 1385 -811 2045 -1022 138 -44 434 -120 468 -120 33 0 38 9 72 150 34 135 97 326 139 415 l33 70 15 -30 c9 -16 33 -82 53 -145 98 -299 222 -477 388 -555 94 -45 146 -50 164 -15 21 37 10 211 -21 347 -14 61 -26 114 -26 117 0 4 33 -21 73 -55 112 -94 263 -191 409 -262 276 -135 455 -185 759 -217 l204 -20 148 34 c161 38 193 52 203 92 12 49 -5 159 -46 294 -42 137 -53 221 -32 242 6 6 13 10 14 7 2 -2 16 -30 32 -62 143 -286 772 -431 1243 -286 163 51 282 135 323 230 18 43 21 66 18 133 -4 98 -33 166 -100 241 -49 54 -81 110 -75 128 2 6 10 3 20 -9 179 -207 247 -275 303 -306 143 -77 372 -80 516 -7 62 32 132 107 152 164 24 66 33 246 17 336 -10 56 -97 355 -126 434 l-7 20 14 -20 c8 -11 61 -99 118 -195 57 -96 123 -204 148 -240 73 -106 223 -280 241 -280 28 0 115 46 145 76 41 41 71 107 91 198 15 65 16 90 7 144 -6 36 -10 68 -8 70 2 2 40 -15 84 -37 197 -99 352 -121 421 -58 48 45 65 102 64 227 0 115 -14 209 -55 358 -11 40 -18 78 -16 84 2 6 37 -36 78 -93 90 -125 210 -253 264 -281 29 -15 52 -19 88 -16 42 4 56 12 94 49 25 24 56 67 70 96 66 134 6 353 -179 655 -26 42 -47 80 -47 83 0 4 35 -31 77 -77 201 -218 296 -299 430 -367 117 -59 124 -52 173 169 48 214 56 281 40 340 -16 59 -148 360 -168 383 -8 9 -13 20 -9 23 3 3 61 -41 129 -98 198 -167 414 -308 469 -308 62 0 95 98 87 257 -10 170 -93 402 -248 687 -40 72 -79 139 -88 149 -8 9 -11 17 -6 17 12 0 79 -57 253 -215 199 -181 351 -281 452 -300 80 -15 130 48 137 170 3 59 -1 84 -28 160 -41 117 -93 227 -167 356 -86 149 -88 153 -71 143 7 -4 65 -40 129 -80 154 -96 204 -120 273 -133 96 -18 136 0 136 58 0 97 -91 287 -215 447 -106 137 -220 302 -214 309 3 3 55 -27 115 -67 222 -145 379 -239 417 -249 49 -13 80 5 103 59 35 83 199 699 249 934 14 67 39 223 55 348 16 124 43 315 59 425 65 434 65 671 0 873 -12 35 -22 37 -94 21z m-7986 -5169 c48 -242 50 -286 6 -124 -38 138 -96 433 -94 474 1 25 57 -197 88 -350z"/>
  </g>
</svg>