<?xml version="1.0" encoding="utf-8"?>
<svg width="350" height="350" viewBox="0 0 350 350" version="1.1" id="svg4" xmlns="http://www.w3.org/2000/svg">
  <path id="path1" style="display: inline; stroke-width: 10px;" d="M 242.045 9.502 C 240.691 9.432 238.527 9.883 237.299 10.6 C 236.507 11.062 235.646 11.965 234.945 12.892 C 233.981 13.663 232.479 14.817 231.042 15.731 C 226.926 18.569 223.36 23.366 223.855 27.771 C 224.291 31.653 227.63 36.255 232.046 40.527 C 232.878 41.263 234.683 43.776 236.155 46.239 L 238.326 49.835 L 238.681 68.153 L 238.999 84.439 L 236.37 85.711 C 233.384 87.163 231.374 87.962 231.641 87.962 C 230.476 87.962 228.538 88.563 227.632 89.188 C 227.388 89.355 227.115 89.617 226.84 89.943 C 226.047 90.085 225.242 90.311 224.701 90.565 C 224.121 90.835 223.08 91.555 222.562 92.128 C 222.527 92.167 222.49 92.211 222.453 92.258 C 219.996 93.074 216.537 94.551 213.417 96.022 C 208.938 98.134 202.982 100.766 200.141 101.885 C 197.198 103.047 193.908 104.347 192.834 104.776 C 190.067 105.905 185.391 107.079 179.019 108.265 C 177.186 108.614 175.308 109.083 174.019 109.51 C 173.315 109.743 172.454 110.086 171.895 110.382 C 171.528 110.574 170.855 111.009 170.465 111.354 C 169.827 111.919 168.507 114.105 168.507 115.634 C 168.507 118.359 174.147 137.079 175.898 140.869 C 177.919 144.975 181.01 148.884 183.619 150.681 C 185.167 151.748 187.964 152.748 189.892 152.564 C 192.15 152.349 195.019 149.585 196.213 147.383 C 197.655 143.031 198.082 142.128 199.906 140.554 C 203.976 136.561 218.433 128.478 227.793 124.934 C 226.997 126.894 225.985 129.306 224.735 132.249 C 205.12 178.469 178.618 225.093 154.808 255.258 C 154.036 256.393 153.136 258.292 153.01 259.56 C 152.869 260.975 153.448 263.189 154.105 264.258 C 155.216 266.062 157.906 267.812 159.833 268.434 C 163.248 269.536 169.212 268.957 173.223 266.809 C 183.636 259.866 194.336 248.195 204.949 232.361 C 206.066 238.265 208.905 246.225 213.028 253.98 C 214.587 256.856 216.814 260.901 219.847 261.537 C 221.952 261.978 224.841 260.627 225.936 259.746 C 226.797 259.052 227.785 258.104 228.971 257.048 C 231.325 254.895 234.6 252.898 237.694 251.411 C 237.79 251.367 237.885 251.32 237.979 251.276 C 238.088 257.307 237.374 269.892 236.283 274 C 234.522 281.572 235.671 297.654 238.055 311.171 C 239.251 317.952 240.796 324.557 242.395 329.349 C 243.218 331.814 244.219 334.214 245.177 335.831 C 246.316 337.754 249.508 339.757 252.113 340.505 C 254.014 340.323 256.744 339.461 258.23 338.182 C 259.542 337.052 260.932 335.024 261.747 333.187 C 263.205 329.9 264.287 324.805 264.899 318.636 C 266.09 306.614 265.99 287.935 264.767 261.632 L 263.758 240.007 L 264.437 239.457 C 265.82 237.95 265.234 238.324 272.317 238.376 C 277.006 238.337 281.51 237.596 284.644 236.251 C 286.655 235.388 288.634 233.941 290.175 232.264 C 293.583 240.161 296.484 246.123 299.14 250.572 C 303.346 257.617 308.081 262.057 312.73 263.638 C 317.524 265.27 322.941 264.411 328.129 263.349 C 335.072 261.85 343.977 257.504 347.183 254.078 C 348.836 251.672 350.051 247.864 349.784 244.701 C 349.542 241.849 348.442 238.174 346.833 234.611 C 343.74 227.758 337.933 218.903 329.936 208.769 C 324.074 201.357 322.069 199.001 316.344 192.814 C 296.094 171.031 282.316 147.816 270.361 115.373 C 269.067 111.88 268.296 109.926 267.87 108.85 C 268.518 108.643 269.331 108.395 270.351 108.074 C 277.647 105.502 282.986 106.337 294.07 111.445 C 299.631 113.767 305.622 114.369 309.792 113.184 C 314.192 111.934 318.474 108.167 320.3 104.361 C 322.092 100.628 322.542 95.022 321.204 90.424 C 319.925 86.026 316.542 80.931 311.965 76.923 C 298.714 66.36 289.153 65.125 273.286 71.972 C 269.865 73.551 266.352 75.002 263.905 75.872 L 264.083 68.977 L 264.376 57.709 L 265.681 56.711 C 269.757 53.111 271.006 50.638 271.541 43.387 L 271.902 36.677 L 272.02 34.488 L 270.592 32.828 L 265.902 27.371 C 259.942 20.467 254.158 15.109 249.713 12.332 C 247.296 10.822 244.267 9.616 242.045 9.502 Z M 144.001 13.746 C 143.486 13.757 142.806 13.984 142.084 14.332 L 142.082 14.334 C 140.589 14.582 138.085 14.921 135.804 14.868 C 131.617 14.81 126.273 15.537 124.222 16.4 C 123.609 16.779 118.202 18.525 112.134 20.32 C 93.099 25.934 83.048 29.134 80.81 30.245 C 80.478 30.501 80.112 30.518 79.719 30.518 C 77.747 30.518 76.037 31.558 74.298 32.658 C 74.388 32.545 74.534 32.453 74.545 32.398 C 74.545 32.398 74.545 32.393 74.545 32.391 L 74.545 32.389 L 74.545 32.387 L 74.545 32.385 L 74.543 32.383 L 74.541 32.381 L 74.539 32.379 C 74.538 32.378 74.535 32.374 74.535 32.373 C 74.509 32.351 74.44 32.338 74.3 32.338 C 72.22 32.338 70.267 33.397 68.398 34.555 C 68.61 34.323 68.933 34.16 68.468 34.16 C 66.466 34.16 64.808 34.553 63.093 36.006 L 63.093 36.004 L 63.093 36.002 L 63.093 36 L 63.093 35.998 L 63.09 35.998 L 63.09 35.996 L 63.088 35.994 C 63.087 35.994 63.083 35.992 63.082 35.992 C 63.075 35.989 63.062 35.989 63.05 35.989 C 61.339 35.989 58.459 36.796 56.931 37.517 C 44.947 44.125 29.035 46.844 22.711 43.299 C 18.563 41.324 14.834 39.863 12.06 39.257 C 8.821 38.549 4.062 39.317 2.045 41.642 C 0.114 43.868 -0.223 48.439 0.595 51.712 C 1.315 54.587 2.865 58.416 4.944 62.737 L 9.581 72.334 L 9.898 115.79 C 10.398 183.265 8.003 225.797 1.81 259.082 C 0.335 267.276 0.316 269.8 1.727 279.149 C 2.552 284.483 3.512 291.512 3.862 294.794 C 4.847 301.57 10.204 310.911 15.482 316.845 C 18.179 319.877 21.443 322.745 24.097 324.162 C 25.616 324.974 28.074 325.705 29.823 325.578 C 31.914 325.427 34.32 323.434 35.774 321.664 C 35.766 321.962 36.207 322.012 38.685 320.864 C 41.463 319.566 44.652 317.744 45.66 316.913 C 45.391 316.956 51.679 314.297 59.536 311.012 C 65.594 308.432 77.999 305.694 95.149 303.119 C 103.224 301.873 117.737 301.766 120.194 302.895 C 129.99 306.421 129.52 305.498 129.889 311.07 C 130.998 317.283 133.461 323.455 136.063 327.028 C 137.501 329.003 139.88 331.14 141.901 331.895 C 143.136 332.358 145.414 332.538 146.808 332.153 C 148.152 331.781 149.964 330.41 150.96 329.355 C 151.095 328.712 151.269 328.83 153.327 328.689 L 160.967 327.726 L 164.836 315.771 C 166.376 311.009 168.467 304.57 169.481 301.459 C 171.039 296.48 171.597 291.557 171.597 281.406 C 171.597 278.223 171.603 275.475 171.466 273.157 C 166.879 274.335 161.533 274.53 158.172 273.621 C 155.6 272.692 151.428 269.78 149.482 267.119 C 148.51 265.312 147.541 261.397 147.605 259.022 C 147.98 256.854 149.569 253.381 150.548 251.882 C 157.291 243.354 164.242 233.502 171.188 222.707 C 171.925 207.221 171.623 187.365 170.042 171.141 C 169.277 163.363 168.637 153.969 168.62 150.211 C 168.596 146.274 168.546 141.588 168.512 139.807 C 168.494 139.039 168.523 137.921 168.592 136.546 C 166.152 129.037 163.076 118.15 163.076 115.636 C 163.076 112.695 165.711 108.469 166.871 107.276 C 167.587 106.683 168.791 105.881 169.367 105.565 C 170.094 105.197 171.177 104.747 172.012 104.448 C 172.781 99.745 173.157 93.811 172.848 91.25 C 172.432 89.414 173.163 86.258 174.343 82.714 C 175.504 79.231 175.747 77.473 175.946 78.043 C 180.601 75.644 185.292 69.992 187.43 64.657 C 189.573 59.313 190.021 51.974 188.216 47.101 C 185.683 42.144 175.443 32.739 166.03 25.709 C 161.31 22.185 156.445 18.904 152.685 16.798 C 150.745 15.71 148.711 14.743 147.199 14.266 C 146.317 13.987 144.947 13.726 144.001 13.746 Z M 238.908 16.634 L 243.881 18.831 C 243.797 18.869 243.579 19.135 243.35 19.41 L 238.908 16.634 Z M 121.349 55.257 C 121.67 55.26 121.973 55.277 122.261 55.307 C 124.054 55.494 123.53 55.096 124.34 57.024 C 126.695 62.635 126.704 75.576 126.623 103.423 C 126.571 121.197 126.606 130.375 125.931 134.787 C 125.345 134.57 124.599 134.29 123.651 133.944 C 118.887 132.208 115.36 130.814 112.038 131.217 C 108.637 131.629 105.637 133.9 101.746 136.678 C 98.136 139.264 93.561 142.198 91.506 143.241 C 79.694 149.327 68.774 154.266 60.514 157.253 C 55.22 159.176 48.387 161.969 45.39 163.438 C 41.887 165.249 42.499 165.452 42.005 164.843 C 40.22 164.245 37.141 163.693 35.356 163.651 L 38.425 163.651 L 38.429 124.64 C 38.431 99.546 38.432 87.312 39.155 81.054 C 39.46 78.394 39.568 77.965 39.836 77.597 C 39.887 77.597 40.134 77.522 41.014 77.182 C 43.369 76.271 46.231 75.054 47.332 74.504 C 47.672 74.25 48.063 74.227 48.471 74.227 C 50.447 74.227 52.296 73.19 54.053 72.01 C 53.955 72.22 53.537 72.408 54.376 72.408 C 56.549 72.408 59.54 71.077 61.581 69.648 C 61.251 70.039 61.1 70.354 62.538 70.155 C 64.409 69.847 67.491 69.344 69.362 69.045 C 71.206 68.71 73.858 67.503 75.717 66.251 C 75.322 66.557 74.985 66.835 74.984 66.915 L 74.984 66.917 L 74.984 66.919 L 74.986 66.921 L 74.986 66.924 L 74.986 66.926 L 74.989 66.928 L 74.989 66.93 L 74.991 66.93 L 74.991 66.932 L 74.993 66.932 L 74.995 66.934 C 75 66.936 75.011 66.938 75.02 66.938 C 77.685 66.938 83.589 65.4 87.922 63.742 C 91.443 62.376 107.323 57.88 111.274 56.767 L 111.276 56.771 C 116.009 55.827 119.103 55.229 121.349 55.257 Z M 241.913 158.851 L 241.913 158.855 L 236.499 172.661 L 236.548 210.925 L 236.991 210.717 C 236.854 210.783 236.708 210.854 236.548 210.936 C 234.738 211.859 231.586 213.722 229.268 215.255 C 224.188 218.627 221.526 220.172 219.671 220.731 C 219.49 220.786 219.376 220.847 219.31 220.906 C 219.281 220.849 219.24 220.783 219.185 220.706 C 217.739 219.493 215.854 218.29 214.435 217.851 C 214.307 217.811 214.172 217.776 214.032 217.746 C 221.671 204.562 229.208 189.268 236.496 172.086 C 238.319 167.792 240.124 163.379 241.913 158.851 Z M 262.029 159.519 C 262.041 159.549 262.051 159.58 262.063 159.61 C 267.81 174.989 272.74 188.146 277.038 199.388 C 276.465 199.125 275.895 198.9 275.333 198.723 C 271.787 197.6 267.218 198.079 263.51 199.523 C 263.374 198.582 263.243 197.45 263.111 196.089 C 262.403 188.754 262.072 176.974 262.029 159.519 Z M 123.31 176.245 L 123.405 176.528 C 124.228 176.128 124.421 176.251 125.328 176.498 C 126.205 176.738 126.284 176.606 126.595 177.238 C 126.554 178.05 126.081 189.473 125.648 211.846 C 125.256 232.166 124.897 252.568 124.851 257.182 L 124.817 260.403 L 120.449 260.622 C 109.435 261.19 103.32 262.188 89.021 265.766 C 83.915 267.052 55.37 275.974 52.281 277.255 C 50.893 277.838 48.917 278.714 47.922 279.186 C 47.62 279.351 47.475 279.417 47.446 279.444 L 47.444 279.446 L 47.442 279.448 L 47.442 279.45 L 47.442 279.453 L 47.442 279.455 L 47.444 279.457 L 47.446 279.459 C 47.463 279.463 47.509 279.461 47.574 279.461 C 46.148 279.461 42.587 280.68 39.891 281.793 C 36.55 283.181 33.757 284.306 31.476 285.184 C 32.526 276.959 34.289 264.413 35.046 260.38 C 36.064 254.811 36.844 240.794 37.384 218.013 C 37.747 202.661 37.919 193.389 38.376 188.191 C 38.748 188.508 39.152 188.852 39.589 189.221 C 40.221 189.753 42.425 191.55 44.477 193.203 L 51.398 198.782 L 58.33 193.816 C 64.977 188.884 72.03 186.797 86.023 185.446 C 91.747 184.871 98.151 183.937 100.155 183.394 C 101.508 182.993 103.036 182.748 103.718 182.748 C 105.728 182.748 107.445 181.795 109.222 180.664 C 109.178 180.74 109.053 180.822 109.05 180.873 L 109.05 180.875 L 109.05 180.877 L 109.05 180.879 C 109.05 180.88 109.053 180.885 109.054 180.887 L 109.056 180.889 C 109.08 180.911 109.152 180.926 109.296 180.926 C 111.379 180.926 113.167 179.977 115.01 178.838 C 114.956 178.916 114.837 178.996 114.829 179.047 L 114.829 179.049 C 114.83 179.053 114.831 179.059 114.831 179.062 L 114.833 179.064 L 114.835 179.066 C 114.853 179.088 114.907 179.102 115.024 179.102 C 116.835 179.102 120.005 178 121.646 176.977 C 121.453 177.051 122.343 176.665 123.31 176.245 Z"/>
</svg>