<?xml version="1.0" encoding="UTF-8" standalone="no"?>
<svg
   viewBox="0 0 640 640"
   version="1.1"
   id="svg3"
   sodipodi:docname="photo-film-solid-full.svg"
   inkscape:version="1.4.4 (dcaf3e7d9e, 2026-05-05)"
   xmlns:inkscape="http://www.inkscape.org/namespaces/inkscape"
   xmlns:sodipodi="http://sodipodi.sourceforge.net/DTD/sodipodi-0.dtd"
   xmlns="http://www.w3.org/2000/svg"
   xmlns:svg="http://www.w3.org/2000/svg">
  <defs
     id="defs3" />
  <sodipodi:namedview
     id="namedview3"
     pagecolor="#505050"
     bordercolor="#ffffff"
     borderopacity="1"
     inkscape:showpageshadow="0"
     inkscape:pageopacity="0"
     inkscape:pagecheckerboard="1"
     inkscape:deskcolor="#505050"
     inkscape:zoom="1.2699904"
     inkscape:cx="334.25449"
     inkscape:cy="198.03299"
     inkscape:window-width="2400"
     inkscape:window-height="1288"
     inkscape:window-x="0"
     inkscape:window-y="0"
     inkscape:window-maximized="1"
     inkscape:current-layer="svg3" />
  <path
     id="path1"
     d="M 256 64 C 220.7 64 192 92.7 192 128 L 192 352 C 192 387.3 220.7 416 256 416 L 576 416 C 611.3 416 640 387.3 640 352 L 640 128 C 640 92.7 611.3 64 576 64 L 256 64 z M 416.57812 111.3418 C 459.50924 111.3418 463.69727 129.63867 463.69727 129.63867 C 463.69727 129.63867 519.32812 127.95451 519.32812 218.44336 L 519.32812 353.57422 C 479.53503 373.69844 422.98863 369.26604 413.57031 360.63672 C 396.505 371.89362 322.62565 372.02733 313.82812 353.57422 L 313.82812 218.44336 C 313.82813 157.56671 350.11732 111.3418 416.57812 111.3418 z M 456.94336 151.71289 C 456.94336 151.71289 376.56459 213.10742 333.25195 213.10742 C 333.25195 213.10742 321.16797 216.62498 321.16797 237.10938 C 321.16797 262.98466 337.19336 267.45117 337.19336 267.45117 C 337.19336 306.49174 386.89808 353.57422 416.57812 353.57422 C 446.27292 353.57422 495.13848 306.49174 495.36133 267.45117 C 495.36133 267.45117 511.98828 262.9794 511.98828 237.10938 C 511.98828 215.61518 499.52734 213.10742 499.52734 213.10742 C 473.78826 205.91661 456.94336 151.71289 456.94336 151.71289 z M 64 192 C 28.7 192 0 220.7 0 256 L 0 480 C 0 515.3 28.7 544 64 544 L 384 544 C 419.3 544 448 515.3 448 480 L 448 464 L 256 464 C 194.1 464 144 413.9 144 352 L 144 192 L 64 192 z M 459.88477 218.83594 C 474.56194 218.35224 491.68696 228.07996 500.97656 223.64062 C 498.45763 226.24116 495.5562 227.58606 492.39648 228.17578 C 493.40232 231.5585 492.67332 234.53745 492.01172 237.14062 C 491.20878 240.02856 489.97446 242.59858 488.65039 245.06641 C 487.32546 247.53249 485.76791 249.82024 484.09961 251.98047 C 482.36367 254.00711 480.63919 256.37036 478.15234 257.29492 C 479.2631 256.63226 479.93787 255.40531 480.66797 254.31641 C 481.38333 253.19851 482.0163 252.02094 482.63281 250.83008 C 483.85022 248.46948 484.93877 246.02602 485.89258 243.51953 C 486.82992 241.093 487.56524 238.57827 488.08203 236.00586 C 488.49305 233.98713 488.50413 231.89641 488.11914 230.45508 C 485.9167 229.52613 483.62854 228.73091 481.32031 227.98828 C 478.60888 227.60861 475.83089 227.08884 473.01367 226.64062 C 475.65226 229.91876 477.11225 234.13608 477.12695 238.51367 C 477.12695 245.00402 473.98266 251.00047 468.87109 254.24609 C 457.86235 261.23915 444.09961 252.49716 444.09961 238.51367 C 444.12215 236.48175 444.4523 234.46884 445.08008 232.55469 C 441.29951 236.26962 437.84748 241.79958 434.92188 249.9668 C 438.53411 225.76561 448.46919 219.21215 459.88477 218.83594 z M 373.26758 218.83789 C 384.68302 219.21384 394.61785 225.7676 398.23047 249.9707 C 395.2988 241.79909 391.84849 236.27176 388.06445 232.55859 C 388.67056 234.42704 389.05469 236.4132 389.05469 238.51367 C 389.05469 245.00402 385.91127 251.00047 380.79883 254.24609 C 369.7901 261.23915 356.02734 252.49716 356.02734 238.51367 C 356.04208 234.14048 357.50073 229.92354 360.12891 226.64453 C 357.29869 227.10153 354.4892 227.62132 351.76562 228.00977 C 349.49035 228.71549 347.24367 229.53442 345.03516 230.45898 C 344.64151 231.89942 344.66298 233.99104 345.06445 236.00977 C 345.59338 238.58131 346.32567 241.09692 347.25781 243.52344 C 348.21162 246.02994 349.3032 248.47249 350.52148 250.83398 C 351.12238 252.03362 351.77681 253.19694 352.48438 254.31836 C 353.21794 255.40374 353.88252 256.63705 355.00195 257.29883 C 352.51424 256.37867 350.78779 254.01298 349.04492 251.98633 C 347.3532 249.82698 345.83056 247.51158 344.49609 245.06836 C 343.17029 242.60317 341.94443 240.03069 341.14062 237.14453 C 340.48422 234.5396 339.74655 231.56133 340.75586 228.17773 C 337.59614 227.5889 334.69384 226.24858 332.17578 223.64453 C 341.46488 228.08435 358.59059 218.35453 373.26758 218.83789 z M 68 244 L 92 244 C 100.8 244 108 251.2 108 260 L 108 284 C 108 292.8 100.8 300 92 300 L 68 300 C 59.2 300 52 292.8 52 284 L 52 260 C 52 251.2 59.2 244 68 244 z M 408.92188 304.10547 C 414.51301 304.21756 416.57813 308.24023 416.57812 308.24023 C 416.57813 308.24023 420.24799 301.08921 431.05469 305.58984 C 439.49853 309.10702 453.32659 307.02676 453.27539 307.03906 C 432.28544 334.99989 403.38043 332.16206 379.88281 307.03906 C 379.83426 307.02412 393.65771 309.10702 402.10156 305.58984 C 404.80324 304.46469 407.05815 304.0681 408.92188 304.10547 z M 68 340 L 92 340 C 100.8 340 108 347.2 108 356 L 108 380 C 108 388.8 100.8 396 92 396 L 68 396 C 59.2 396 52 388.8 52 380 L 52 356 C 52 347.2 59.2 340 68 340 z M 68 436 L 92 436 C 100.8 436 108 443.2 108 452 L 108 476 C 108 484.8 100.8 492 92 492 L 68 492 C 59.2 492 52 484.8 52 476 L 52 452 C 52 443.2 59.2 436 68 436 z " />
</svg>
