<?xml version="1.0" encoding="utf-8"?>
<svg xmlns="http://www.w3.org/2000/svg" width="1em" height="1em" viewBox="0 0 24 24">
  <path d="M 22 14 L 22 18 C 22 19.105 21.105 20 20 20 L 4 20 C 2.895 20 2 19.105 2 18 L 2 14 C 3.105 14 4 13.105 4 12 C 4 10.895 3.105 10 2 10 L 2 6 C 2 4.895 2.895 4 4 4 L 20 4 C 21.105 4 22 4.895 22 6 L 22 10 C 20.895 10 20 10.895 20 12 C 20.027 13.147 20.962 14.092 22 14 Z M 12 6.18 C 11.695 6.18 11.448 6.409 11.448 6.693 L 11.448 7.718 L 8.132 7.718 C 7.522 7.718 7.027 8.177 7.027 8.744 L 7.027 15.41 C 7.027 15.977 7.522 16.436 8.132 16.436 L 15.868 16.436 C 16.478 16.436 16.973 15.977 16.973 15.41 L 16.973 8.744 C 16.973 8.177 16.478 7.718 15.868 7.718 L 12.553 7.718 L 12.553 6.693 C 12.551 6.367 12.296 6.173 12 6.18 Z M 12.553 7.718 L 12.553 12.245 L 13.563 11.308 C 13.864 11.028 14.377 11.156 14.488 11.538 C 14.539 11.715 14.484 11.903 14.345 12.033 L 12.488 13.756 C 12.218 14.006 11.782 14.006 11.512 13.756 L 9.656 12.033 C 9.355 11.754 9.493 11.277 9.904 11.175 C 10.095 11.127 10.298 11.178 10.438 11.308 L 11.448 12.245 L 11.448 7.718 L 12.553 7.718 Z" style=""/>
</svg>