<?xml version="1.0" encoding="UTF-8" standalone="no"?>
<svg
   fill="#000000"
   height="800px"
   width="800px"
   version="1.1"
   id="Capa_1"
   viewBox="0 0 420.012 420.012"
   sodipodi:docname="movie-svgrepo-com (2).svg"
   inkscape:version="1.4.4 (dcaf3e7d9e, 2026-05-05)"
   xmlns:inkscape="http://www.inkscape.org/namespaces/inkscape"
   xmlns:sodipodi="http://sodipodi.sourceforge.net/DTD/sodipodi-0.dtd"
   xmlns="http://www.w3.org/2000/svg"
   xmlns:svg="http://www.w3.org/2000/svg">
  <defs
     id="defs1" />
  <sodipodi:namedview
     id="namedview1"
     pagecolor="#505050"
     bordercolor="#ffffff"
     borderopacity="1"
     inkscape:showpageshadow="0"
     inkscape:pageopacity="0"
     inkscape:pagecheckerboard="1"
     inkscape:deskcolor="#505050"
     inkscape:zoom="1.01125"
     inkscape:cx="400"
     inkscape:cy="400"
     inkscape:window-width="1920"
     inkscape:window-height="1018"
     inkscape:window-x="0"
     inkscape:window-y="0"
     inkscape:window-maximized="1"
     inkscape:current-layer="Capa_1" />
  <path
     id="XMLID_85_"
     d="M 0 39.99958 L 0 380.01242 L 420.012 380.01242 L 420.012 39.99958 L 0 39.99958 z M 60.005523 105.00608 L 100.00613 105.00608 L 100.00613 135.00576 L 60.005523 135.00576 L 60.005523 105.00608 z M 320.00587 105.00608 L 360.00648 105.00608 L 360.00648 135.00576 L 320.00587 135.00576 L 320.00587 105.00608 z M 203.14902 107.22201 L 216.85068 107.22201 C 228.19668 107.22201 237.40214 114.89567 237.40214 124.35267 L 237.40214 229.27261 L 264.80342 229.27261 C 270.32642 229.27261 275.33658 232.02192 277.47658 236.30392 C 279.61758 240.58692 278.46237 245.4767 274.52337 248.7597 L 219.71878 309.44302 C 214.36678 313.90502 205.67496 313.90502 200.32296 309.44302 L 145.52042 248.7597 C 141.58142 245.5127 140.38211 240.62181 142.52311 236.33981 C 144.66411 232.05681 149.67328 229.27261 155.19628 229.27261 L 182.59755 229.27261 L 182.59755 124.35267 C 182.59755 114.89567 191.80302 107.22201 203.14902 107.22201 z M 60.005523 165.00647 L 100.00613 165.00647 L 100.00613 195.00616 L 60.005523 195.00616 L 60.005523 165.00647 z M 320.00587 165.00647 L 360.00648 165.00647 L 360.00648 195.00616 L 320.00587 195.00616 L 320.00587 165.00647 z M 60.005523 225.00584 L 100.00613 225.00584 L 100.00613 255.00553 L 60.005523 255.00553 L 60.005523 225.00584 z M 320.00587 225.00584 L 360.00648 225.00584 L 360.00648 255.00553 L 320.00587 255.00553 L 320.00587 225.00584 z M 60.005523 285.00624 L 100.00613 285.00624 L 100.00613 315.00592 L 60.005523 315.00592 L 60.005523 285.00624 z M 320.00587 285.00624 L 360.00648 285.00624 L 360.00648 315.00592 L 320.00587 315.00592 L 320.00587 285.00624 z " />
</svg>
