<?xml version="1.0" encoding="utf-8"?>
<svg xmlns="http://www.w3.org/2000/svg" viewBox="0 0 26 26">
  <path d="M 22.024 24.159 C 22.207 24.67 21.947 25.235 21.443 25.421 L 21.166 25.523 C 20.661 25.709 20.103 25.446 19.92 24.935 L 19.103 22.663 L 6.871 22.663 L 6.054 24.935 C 5.871 25.445 5.313 25.709 4.808 25.523 L 4.532 25.421 C 4.027 25.235 3.767 24.67 3.95 24.159 L 4.488 22.663 L 3.278 22.663 C 1.667 22.663 0.361 21.341 0.361 19.71 L 0.361 7.898 C 0.361 6.266 1.667 4.945 3.278 4.945 L 11.602 4.945 L 9.383 2.7 C 9.133 2.447 9.035 2.078 9.126 1.733 C 9.324 0.987 10.243 0.737 10.782 1.283 L 13 3.53 L 16.189 0.299 C 16.346 0.144 16.549 0.046 16.767 0.023 L 17.211 0.053 C 17.927 0.276 18.136 1.199 17.587 1.715 L 14.397 4.945 L 22.721 4.945 C 24.332 4.945 25.638 6.266 25.638 7.898 L 25.638 19.71 C 25.638 21.341 24.332 22.663 22.721 22.663 L 21.486 22.663 Z M 22.235 9.804 C 21.395 9.802 20.714 10.492 20.716 11.343 C 20.714 12.193 21.395 12.883 22.235 12.881 C 23.075 12.883 23.757 12.193 23.755 11.343 C 23.755 10.49 23.077 9.805 22.235 9.805 Z M 22.235 13.742 C 21.395 13.74 20.714 14.43 20.716 15.28 C 20.714 16.131 21.395 16.821 22.235 16.819 C 23.075 16.821 23.757 16.131 23.755 15.28 C 23.755 14.428 23.077 13.743 22.235 13.743 Z M 10.736 16.234 C 10.835 16.235 10.927 16.22 11.012 16.19 C 11.099 16.161 11.178 16.11 11.252 16.039 L 13.901 13.489 C 14.049 13.348 14.12 13.182 14.113 12.993 C 14.107 12.805 14.036 12.639 13.901 12.497 C 13.755 12.356 13.58 12.281 13.377 12.276 C 13.175 12.27 12.999 12.338 12.852 12.48 L 11.472 13.808 L 11.472 8.743 C 11.474 8.543 11.403 8.375 11.261 8.239 C 11.12 8.102 10.945 8.034 10.736 8.034 C 10.529 8.035 10.354 8.103 10.212 8.239 C 10.071 8.375 10.001 8.542 10.001 8.743 L 10.001 13.808 L 8.621 12.48 C 8.474 12.339 8.3 12.271 8.097 12.276 C 7.894 12.282 7.719 12.356 7.572 12.497 C 7.436 12.639 7.366 12.805 7.36 12.993 C 7.354 13.182 7.425 13.348 7.572 13.489 L 10.221 16.039 C 10.295 16.11 10.375 16.161 10.46 16.19 Z M 15.152 19.369 C 15.558 19.37 15.904 19.231 16.192 18.953 C 16.48 18.675 16.624 18.342 16.624 17.952 L 16.624 16.535 C 16.625 16.336 16.555 16.168 16.413 16.031 C 16.271 15.895 16.096 15.827 15.888 15.827 C 15.681 15.828 15.505 15.896 15.364 16.031 C 15.223 16.167 15.152 16.335 15.152 16.535 L 15.152 17.952 L 6.321 17.952 L 6.321 16.535 C 6.322 16.336 6.252 16.168 6.11 16.031 C 5.968 15.895 5.793 15.827 5.585 15.827 C 5.377 15.828 5.202 15.896 5.061 16.031 C 4.92 16.167 4.849 16.335 4.849 16.535 L 4.849 17.952 C 4.85 18.343 4.994 18.676 5.282 18.953 C 5.57 19.231 5.916 19.369 6.321 19.369 Z" style="stroke-width: 1;"/>
</svg>