<?xml version="1.0" encoding="utf-8"?>
<svg xmlns="http://www.w3.org/2000/svg" width="1em" height="1em" viewBox="0 0 24 24">
  <path d="M 6.013 2.007 H 17.987 A 1 0.997 0 0 1 18.987 3.003 V 3.003 A 1 0.997 0 0 1 17.987 4 H 6.013 A 1 0.997 0 0 1 5.013 3.003 V 3.003 A 1 0.997 0 0 1 6.013 2.007 Z" style=""/>
  <path d="M 3.968 5.515 H 19.997 A 1 0.997 0 0 1 20.997 6.511 V 6.511 A 1 0.997 0 0 1 19.997 7.508 H 3.968 A 1 0.997 0 0 1 2.968 6.511 V 6.511 A 1 0.997 0 0 1 3.968 5.515 Z" style="stroke-width: 1;"/>
  <g>
    <path d="M 1.97 9.005 L 21.995 9.005 C 22.547 9.005 22.995 9.453 22.995 10.005 L 22.995 20.986 C 22.995 21.538 22.547 21.986 21.995 21.986 L 1.97 21.986 C 1.418 21.986 0.97 21.538 0.97 20.986 L 0.97 10.005 C 0.97 9.453 1.418 9.005 1.97 9.005 Z M 2.409 11.019 L 4.992 11.019 L 4.992 9.893 L 2.409 9.893 Z M 2.409 13.039 L 4.992 13.039 L 4.992 11.913 L 2.409 11.913 Z M 2.409 15.05 L 4.992 15.05 L 4.992 13.924 L 2.409 13.924 Z M 2.409 17.063 L 4.992 17.063 L 4.992 15.937 L 2.409 15.937 Z M 2.409 19.066 L 4.992 19.066 L 4.992 17.94 L 2.409 17.94 Z M 2.409 21.082 L 4.992 21.082 L 4.992 19.956 L 2.409 19.956 Z M 18.983 11.019 L 21.566 11.019 L 21.566 9.893 L 18.983 9.893 Z M 18.983 13.039 L 21.566 13.039 L 21.566 11.913 L 18.983 11.913 Z M 18.983 15.05 L 21.566 15.05 L 21.566 13.924 L 18.983 13.924 Z M 18.983 17.063 L 21.566 17.063 L 21.566 15.937 L 18.983 15.937 Z M 18.983 19.066 L 21.566 19.066 L 21.566 17.94 L 18.983 17.94 Z M 18.983 21.082 L 21.566 21.082 L 21.566 19.956 L 18.983 19.956 Z M 6.459 15.045 L 17.509 15.045 L 17.509 9.895 L 6.459 9.895 Z M 6.459 21.091 L 17.509 21.091 L 17.509 15.941 L 6.459 15.941 Z" style="stroke-width: 1;"/>
  </g>
</svg>