<?xml version="1.0" encoding="utf-8"?>
<svg xmlns="http://www.w3.org/2000/svg" width="1em" height="1em" viewBox="0 0 16 16">
  <path fill-rule="evenodd" d="M 7.84 3.002 L 8.159 3.002 L 10.177 0.784 C 10.368 0.575 10.672 0.47 10.974 0.511 C 11.623 0.598 11.923 1.27 11.512 1.721 L 10.344 3.002 L 12.552 3.002 C 14.438 3.002 15.967 4.345 15.967 6.002 L 15.967 11.002 C 15.967 12.577 14.581 13.884 12.793 13.995 L 13.033 14.417 C 13.165 14.654 13.146 14.934 12.981 15.156 C 12.624 15.64 11.803 15.602 11.505 15.087 L 10.935 14.087 C 10.919 14.059 10.907 14.031 10.895 14.002 L 5.106 14.002 C 5.094 14.031 5.079 14.059 5.063 14.087 L 4.494 15.087 C 4.358 15.301 4.112 15.444 3.835 15.469 C 3.181 15.528 2.701 14.943 2.969 14.416 L 3.208 13.995 C 1.419 13.885 0.032 12.577 0.032 11.002 L 0.032 6.002 C 0.032 4.345 1.561 3.002 3.447 3.002 L 5.655 3.002 L 4.487 1.721 C 4.297 1.512 4.249 1.229 4.358 0.979 C 4.598 0.441 5.411 0.333 5.821 0.784 L 7.84 3.002 Z M 3.447 4.502 C 2.504 4.502 1.74 5.174 1.74 6.002 L 1.74 11.002 C 1.74 11.83 2.504 12.502 3.447 12.502 L 4.665 12.502 L 4.665 12.517 L 4.666 12.518 C 4.735 13.006 4.925 13.166 5.104 13.3 L 5.134 13.323 L 5.163 13.334 C 5.46 13.469 5.83 13.439 6.045 13.314 C 6.26 13.189 6.456 12.81 6.501 12.563 L 6.501 12.502 L 12.552 12.502 C 13.494 12.502 14.26 11.83 14.26 11.002 L 14.26 6.002 C 14.26 5.474 13.948 5.009 13.477 4.741 L 13.485 4.166 L 13.494 3.499 L 12.827 3.508 L 11.209 3.528 C 10.913 3.505 10.504 3.707 10.42 4 C 10.367 4.14 10.345 4.325 10.352 4.502 L 3.447 4.502 Z M 12.552 4.502 L 11.219 4.502 C 11.234 4.489 11.265 4.478 11.283 4.482 C 11.259 4.466 11.262 4.425 11.282 4.413 C 11.255 4.417 11.228 4.388 11.265 4.37 L 12.078 4.357 L 12.478 4.352 L 12.484 4.352 L 12.647 4.35 L 12.645 4.504 C 12.614 4.503 12.583 4.502 12.552 4.502 Z" clip-rule="evenodd" style=""/>
  <path d="M 5.165 12.517 L 5.165 10.36 C 5.177 10.215 5.267 10.059 5.374 9.997 C 5.481 9.935 5.661 9.935 5.793 9.997 C 5.903 10.072 5.993 10.226 6.003 10.36 L 6.003 12.517 C 5.99 12.662 5.901 12.818 5.794 12.88 C 5.687 12.942 5.507 12.942 5.375 12.88 C 5.258 12.804 5.176 12.697 5.165 12.517 Z" style="fill: rgb(0, 0, 0); paint-order: stroke;"/>
  <path d="M 12.541 6.198 C 12.437 6.19 12.314 6.14 12.247 6.071 C 12.181 6.003 12.134 5.878 12.129 5.773 L 12.14 4.856 L 11.227 4.868 C 11.082 4.857 10.925 4.769 10.862 4.663 C 10.799 4.556 10.786 4.37 10.857 4.243 C 10.922 4.126 11.083 4.04 11.216 4.028 L 12.834 4.008 L 12.988 4.006 L 12.986 4.16 L 12.965 5.784 C 12.958 5.889 12.905 6.006 12.839 6.079 C 12.734 6.195 12.541 6.198 12.541 6.198 Z" style="fill: rgb(0, 0, 0);"/>
  <path d="M 10.253 6.749 C 10.184 6.67 10.131 6.548 10.131 6.452 C 10.131 6.356 10.184 6.234 10.254 6.155 L 12.266 4.136 C 12.375 4.04 12.548 3.99 12.668 4.02 C 12.788 4.05 12.917 4.176 12.969 4.312 C 12.996 4.447 12.951 4.623 12.86 4.726 L 10.846 6.748 C 10.767 6.818 10.645 6.871 10.55 6.871 C 10.502 6.871 10.438 6.859 10.393 6.84 C 10.347 6.822 10.304 6.781 10.304 6.781 C 10.298 6.778 10.328 6.711 10.359 6.644 Z" style=""/>
  <g fill="currentColor" fill-rule="evenodd" clip-rule="evenodd" transform="matrix(0.268485, 0, 0, 0.269535, 1.55581, 2.004649)" style="">
    <path d="M17.546 15.48a7 7 0 1 0 4.372 5.454a1 1 0 1 1 1.977-.304a9 9 0 1 1-5.622-7.014a1 1 0 1 1-.727 1.863" style="stroke: rgb(0, 0, 0); stroke-width: 1.1152px; fill: rgb(0, 0, 0);"/>
    <path d="M11 34a1 1 0 0 1 1-1h6a1 1 0 1 1 0 2h-6a1 1 0 0 1-1-1m17.902-18.737a7 7 0 0 0-8.853 7.562a1 1 0 1 1-1.986.236a9 9 0 1 1 5.375 7.204a1 1 0 0 1 .791-1.837a7 7 0 1 0 4.673-13.165" style="stroke: rgb(0, 0, 0); stroke-width: 1.1152px; fill: rgb(0, 0, 0);"/>
  </g>
</svg>