<?xml version="1.0" encoding="utf-8"?>
<svg xmlns="http://www.w3.org/2000/svg" viewBox="0 0 26 26">
  <g transform="matrix(1, 0, 0, 1, -0.3545, -0.20616)">
    <path d="M 17.122 0.229 C 16.904 0.252 16.701 0.35 16.544 0.505 L 13.355 3.736 L 11.137 1.489 C 10.598 0.943 9.679 1.193 9.481 1.939 C 9.39 2.284 9.488 2.653 9.738 2.906 L 11.957 5.151 L 3.633 5.151 C 2.022 5.151 0.716 6.472 0.716 8.104 L 0.716 19.916 C 0.716 21.547 2.022 22.869 3.633 22.869 L 23.076 22.869 C 24.687 22.869 25.993 21.547 25.993 19.916 L 25.993 8.104 C 25.993 6.472 24.687 5.151 23.076 5.151 L 14.752 5.151 L 17.942 1.921 C 18.491 1.405 18.282 0.482 17.566 0.259 C 17.422 0.214 17.271 0.204 17.122 0.229 M 10.924 7.119 C 18.162 7.119 19.188 7.14 19.188 14.01 C 19.188 20.88 18.091 20.9 10.924 20.9 C 3.724 20.9 2.661 20.827 2.661 14.01 C 2.661 7.194 3.724 7.119 10.924 7.119 M 22.59 10.011 C 23.432 10.011 24.11 10.696 24.11 11.549 C 24.112 12.399 23.43 13.089 22.59 13.087 C 21.75 13.089 21.069 12.399 21.071 11.549 C 21.069 10.698 21.75 10.008 22.59 10.01 L 22.59 10.011 Z M 22.59 13.949 C 23.432 13.949 24.11 14.634 24.11 15.486 C 24.112 16.337 23.43 17.027 22.59 17.025 C 21.75 17.027 21.069 16.337 21.071 15.486 C 21.069 14.636 21.75 13.946 22.59 13.948 L 22.59 13.949 Z" style=""/>
    <path d="M 6.453 21.269 L 6.73 21.371 C 7.234 21.557 7.494 22.122 7.311 22.633 L 6.409 25.141 C 6.226 25.651 5.668 25.915 5.163 25.729 L 4.887 25.627 C 4.382 25.441 4.122 24.876 4.305 24.365 L 5.207 21.858 C 5.391 21.347 5.948 21.083 6.453 21.269 Z" style="transform-origin: 5.131px 27.09px;"/>
    <path d="M 19.965 21.401 L 20.242 21.299 C 20.746 21.113 21.304 21.377 21.488 21.887 L 22.379 24.365 C 22.562 24.876 22.302 25.441 21.798 25.627 L 21.521 25.729 C 21.016 25.915 20.458 25.652 20.275 25.141 L 19.384 22.663 C 19.2 22.152 19.46 21.587 19.965 21.401 Z" style="stroke-width: 1; transform-origin: 20.829px 26.905px;"/>
    <path stroke="none" fill="#080404" fill-rule="evenodd" style="stroke-width: 1;"/>
    <path d="M 7.89 10.154 C 7.89 9.444 8.59 8.87 9.455 8.87 C 10.32 8.87 11.019 9.444 11.019 10.154 C 11.019 10.864 10.32 11.438 9.455 11.438 C 8.59 11.438 7.89 10.864 7.89 10.154 Z M 19.853 18.741 C 19.853 19.195 19.402 19.565 18.848 19.565 L 13.837 19.565 C 13.284 19.565 12.832 19.195 12.832 18.741 L 12.832 17.305 L 8.456 17.305 L 8.456 18.892 C 8.456 19.263 8.094 19.56 7.642 19.56 L 4.64 19.56 C 4.189 19.56 3.826 19.263 3.826 18.892 C 3.826 18.521 4.189 18.224 4.64 18.224 L 6.834 18.224 C 6.834 18.224 6.841 16.308 6.841 16.277 C 6.815 15.864 7.171 15.499 7.674 15.426 L 10.593 15.024 C 10.593 15.024 10.593 11.934 10.593 11.934 C 10.593 11.323 11.197 10.822 11.948 10.822 C 12.183 10.822 12.406 10.869 12.597 10.958 C 13.131 11.193 15.261 12.508 16.483 13.255 C 17.042 13.599 17.367 14.137 17.367 14.706 L 17.373 17.911 L 18.855 17.911 C 19.402 17.916 19.853 18.286 19.853 18.741 Z M 15.37 17.916 L 15.357 16.037 C 15.357 15.494 15.052 14.988 14.53 14.653 L 12.221 13.181 L 12.221 14.805 L 12.915 14.711 C 12.915 14.711 12.921 14.711 12.921 14.711 C 13.398 14.648 13.888 14.758 14.257 15.014 C 14.625 15.269 14.842 15.645 14.848 16.042 C 14.848 16.047 14.848 16.047 14.848 16.052 L 14.848 17.916 L 15.35 17.916 L 15.37 17.916 Z M 4.748 16.084 C 5.537 16.376 6.421 16.068 6.822 15.442 C 7.33 14.633 7.108 13.714 6.669 13.202 C 6.669 13.202 6.218 12.81 6.218 12.81 C 5.913 13.113 5.893 13.599 5.422 13.625 C 4.672 13.667 4.233 13.897 3.966 14.382 C 3.61 15.029 3.96 15.791 4.748 16.084 Z" style="stroke-width: 1;"/>
  </g>
</svg>