<?xml version="1.0" encoding="utf-8"?>
<svg viewBox="0 0 24 24" version="1.1" id="svg2" xmlns="http://www.w3.org/2000/svg">
  <path id="path1" style="stroke-width:0.961374" d="M 19.689 0.145 C 19.977 0.145 20.212 0.381 20.212 0.672 L 20.212 23.255 C 20.212 23.544 19.978 23.782 19.689 23.782 L 17.67 23.782 C 17.189 23.782 16.796 23.391 16.796 22.907 L 16.796 22.902 L 18.271 22.902 L 18.27 1.024 L 16.796 1.024 C 16.796 0.539 17.188 0.145 17.669 0.145 L 19.689 0.145 Z M 16.033 1.798 L 17.429 1.798 L 17.429 22.132 L 16.033 22.132 L 16.033 23.766 L 5.011 23.766 C 4.718 23.766 4.488 23.528 4.488 23.239 L 4.487 0.69 C 4.487 0.399 4.717 0.162 5.01 0.162 L 16.032 0.162 L 16.033 1.798 Z M 7.627 1.092 L 7.628 22.838 L 14.763 22.838 L 14.763 1.092 L 7.627 1.092 Z M 11.074 1.97 C 12.131 1.97 13.103 2.319 13.893 2.908 L 13.893 5.798 L 13.171 5.798 C 12.811 4.991 12.005 4.429 11.074 4.429 C 10.138 4.429 9.333 4.992 8.972 5.798 L 8.496 5.798 L 8.496 2.738 C 9.238 2.252 10.122 1.97 11.074 1.97 Z M 13.894 6.679 L 13.894 17.248 L 8.497 17.248 L 8.497 6.679 L 13.894 6.679 Z M 8.973 18.128 C 9.334 18.935 10.139 19.499 11.075 19.499 C 12.006 19.499 12.812 18.934 13.172 18.128 L 13.894 18.128 L 13.894 21.018 C 13.104 21.609 12.132 21.956 11.075 21.956 C 10.122 21.956 9.238 21.678 8.496 21.192 L 8.496 18.128 L 8.972 18.128 L 8.973 18.128 Z"/>
</svg>