<?xml version="1.0" encoding="utf-8"?>
<svg xmlns="http://www.w3.org/2000/svg" viewBox="0 0 26 26">
  <g transform="matrix(1, 0, 0, 1, -0.3545, -0.20616)">
    <path d="M 17.122 0.229 C 16.904 0.252 16.701 0.35 16.544 0.505 L 13.355 3.736 L 11.137 1.489 C 10.598 0.943 9.679 1.193 9.481 1.939 C 9.39 2.284 9.488 2.653 9.738 2.906 L 11.957 5.151 L 3.633 5.151 C 2.022 5.151 0.716 6.472 0.716 8.104 L 0.716 19.916 C 0.716 21.547 2.022 22.869 3.633 22.869 L 23.076 22.869 C 24.687 22.869 25.993 21.547 25.993 19.916 L 25.993 8.104 C 25.993 6.472 24.687 5.151 23.076 5.151 L 14.752 5.151 L 17.942 1.921 C 18.491 1.405 18.282 0.482 17.566 0.259 C 17.422 0.214 17.271 0.204 17.122 0.229 M 10.924 7.119 C 18.162 7.119 19.188 7.14 19.188 14.01 C 19.188 20.88 18.091 20.9 10.924 20.9 C 3.724 20.9 2.661 20.827 2.661 14.01 C 2.661 7.194 3.724 7.119 10.924 7.119 M 22.59 10.011 C 23.432 10.011 24.11 10.696 24.11 11.549 C 24.112 12.399 23.43 13.089 22.59 13.087 C 21.75 13.089 21.069 12.399 21.071 11.549 C 21.069 10.698 21.75 10.008 22.59 10.01 L 22.59 10.011 Z M 22.59 13.949 C 23.432 13.949 24.11 14.634 24.11 15.486 C 24.112 16.337 23.43 17.027 22.59 17.025 C 21.75 17.027 21.069 16.337 21.071 15.486 C 21.069 14.636 21.75 13.946 22.59 13.948 L 22.59 13.949 Z" style=""/>
    <path d="M 7.282 7.42 C 7.401 7.637 7.603 7.993 7.729 8.208 C 7.855 8.424 8.02 8.708 8.093 8.839 C 8.17 8.97 8.253 9.12 8.284 9.176 C 8.391 9.363 8.505 9.594 8.541 9.699 C 8.733 10.223 7.906 11.882 7.115 12.562 C 7.071 12.601 6.97 12.692 6.892 12.763 C 6.756 12.887 6.758 12.887 6.936 12.735 C 7.498 12.258 7.704 12.19 9.279 11.988 C 10.441 11.839 11.515 11.782 12.395 11.826 C 12.598 11.835 12.796 11.845 12.838 11.847 C 14.508 11.921 15.454 12.202 16.125 12.827 C 16.2 12.898 16.266 12.953 16.27 12.95 C 16.275 12.945 16.278 12.951 16.278 12.961 C 16.278 12.969 16.291 12.994 16.307 13.012 C 16.331 13.044 16.333 13.044 16.331 13.017 C 16.329 13.002 16.325 12.989 16.319 12.989 C 16.312 12.989 16.31 12.982 16.315 12.976 C 16.325 12.961 16.234 12.541 16.156 12.245 C 16.028 11.754 15.942 11.48 15.603 10.469 C 15.303 9.574 15.246 9.367 15.114 8.635 C 15.024 8.137 14.99 8.001 14.775 7.273 C 14.704 7.026 14.704 7.026 10.884 7.026 C 7.068 7.026 7.068 7.026 7.282 7.42 M 12.247 12.584 C 11.746 12.619 11.459 12.657 11.246 12.722 C 11.103 12.767 10.906 12.858 10.906 12.877 C 10.906 12.886 10.901 12.888 10.892 12.887 C 10.808 12.863 10.084 13.543 10.084 13.645 C 10.084 13.653 10.079 13.66 10.073 13.66 C 10.052 13.66 9.906 13.904 9.852 14.025 C 9.721 14.33 9.654 14.649 9.599 15.242 C 9.563 15.65 9.548 15.627 9.247 14.76 C 8.915 13.792 8.45 13.183 7.836 12.903 C 7.303 12.662 6.662 12.95 6.254 13.615 C 5.614 14.661 5.497 15.067 5.503 16.262 C 5.507 16.828 5.505 16.837 5.361 17.398 C 5.165 18.16 5.03 18.827 4.906 19.652 C 4.852 20.016 4.726 20.954 4.726 20.995 C 4.726 21.13 9.589 21.017 9.65 20.879 C 9.687 20.802 9.781 20.588 9.861 20.407 C 9.941 20.228 10.052 19.977 10.11 19.856 C 10.387 19.261 10.435 19.065 10.365 18.821 C 10.324 18.681 10.321 18.464 10.358 18.273 C 10.387 18.122 10.388 17.942 10.363 17.871 C 10.334 17.802 10.378 17.826 10.469 17.934 C 10.528 18.002 10.6 18.065 10.875 18.269 C 11.025 18.382 11.029 18.391 11.013 18.659 C 10.97 19.495 11.068 20.263 11.311 20.978 C 11.362 21.128 16.57 21.03 16.588 20.879 C 16.787 19.174 16.756 15.776 16.53 14.177 C 16.504 14.005 16.477 13.815 16.469 13.759 C 16.453 13.638 16.436 13.59 16.448 13.696 C 16.482 14.037 16.487 14.025 16.349 13.893 C 16.203 13.749 16.103 13.678 15.585 13.354 C 14.745 12.828 14.417 12.698 13.68 12.602 C 13.48 12.574 12.529 12.562 12.247 12.584" stroke="none" fill="#040404" fill-rule="evenodd" style="stroke-width: 1;"/>
    <path d="M 6.453 21.269 L 6.73 21.371 C 7.234 21.557 7.494 22.122 7.311 22.633 L 6.409 25.141 C 6.226 25.651 5.668 25.915 5.163 25.729 L 4.887 25.627 C 4.382 25.441 4.122 24.876 4.305 24.365 L 5.207 21.858 C 5.391 21.347 5.948 21.083 6.453 21.269 Z" style="transform-origin: 5.131px 27.09px;"/>
    <path d="M 19.965 21.401 L 20.242 21.299 C 20.746 21.113 21.304 21.377 21.488 21.887 L 22.379 24.365 C 22.562 24.876 22.302 25.441 21.798 25.627 L 21.521 25.729 C 21.016 25.915 20.458 25.652 20.275 25.141 L 19.384 22.663 C 19.2 22.152 19.46 21.587 19.965 21.401 Z" style="stroke-width: 1; transform-origin: 20.829px 26.905px;"/>
  </g>
</svg>